PathFileType	4	(X/Y/Z)	C:\Users\°ÂÌØÂü\Desktop\20210112\bx_y_10_1802-Unnamed.trc
DataRate	CameraRate	NumFrames	NumMarkers	Units	OrigDataRate	OrigDataStartFrame	OrigNumFrames
50.00	50.00	       9	0	mm	50.00	82	       652
Frame#	Time	
		

82	1.620	-640.22211	-6.44072	1052.64099	-689.06873	-65.19704	870.82953	-737.46198	249.49538	639.90216	-706.74286	81.86533	578.41376	-693.54315	142.92285	581.57129	-681.21796	19.22487	522.86401	-734.59491	243.74213	577.38080	-774.43915	252.87788	502.08484	-678.78900	203.16628	537.12823				-664.78766	-67.55253	163.33521	-711.41376	152.95552	216.28473	-624.09155	-78.82544	159.85599	-882.58575	296.13757	144.56622	-675.25909	55.61138	158.59494	-603.10803	18.45589	167.18227	-562.05725	-42.99700	163.66608	-595.09576	222.54704	173.79005	-666.72028	298.10468	160.50491	-629.54712	306.13315	162.34540	-560.97900	261.53564	165.15421	-528.30151	304.45911	146.54424	-563.24091	118.41830	1837.42261	-699.22662	285.92398	1541.47925	-654.91290	281.00430	877.10632	-517.87463	-72.59519	142.90746	-796.67218	172.53267	183.88596	-771.64160	223.52106	204.55792	-682.22559	-65.80701	1561.13623	-768.43042	-6.61303	206.23558	-795.23431	55.11908	174.64932	-840.72479	100.10308	1051.27710	-777.57288	-32.57308	487.67139	-876.14221	-78.61501	141.36526	-727.05292	-47.43227	718.27332	-722.23383	-25.99700	617.40649	-731.78900	-23.28077	567.67877	-675.44904	171.96576	157.40750	-714.94244	274.69928	751.22614	-604.59070	104.69011	1430.06982	-632.63861	220.50565	1068.58350	-622.61890	-2.22918	810.28711	-717.41595	76.92937	216.85443	-619.41797	216.26979	823.57214	
83	1.640	-643.28845	-6.22104	1052.25928	-692.00226	-66.06428	871.42224	-737.19354	249.15833	639.71185	-706.70209	81.52467	578.75165	-693.14923	142.98633	581.96320	-681.47504	19.26995	523.22699	-733.93799	244.08792	577.63202	-773.12268	252.91325	502.03384	-677.43964	203.21948	537.06689				-664.71088	-67.47980	163.16774	-711.22919	152.74445	216.40971	-624.11932	-79.01103	159.89581	-882.62793	296.06015	144.62656	-675.27716	55.45738	158.39601	-603.15790	18.61164	167.31921	-561.97931	-42.90512	163.85066	-594.99121	222.41437	173.47234	-666.59418	298.02612	160.96046	-629.51575	306.15128	162.56136	-560.97821	261.60834	165.02710	-528.16638	304.29086	146.51559	-554.13678	117.49280	1834.78760	-696.41412	285.38586	1541.79395	-658.02509	281.38901	877.81061	-517.95026	-72.44818	142.71536	-796.64886	172.43250	183.97104	-771.41656	223.71492	204.89749	-678.34088	-66.17627	1560.40747	-768.41901	-6.79773	206.14030	-795.16583	55.08947	174.71463	-844.01746	99.96539	1051.62036	-777.63031	-32.62597	487.55676	-876.03320	-78.59757	141.50241	-728.92102	-47.57304	718.51874	-723.54169	-25.77282	617.44452	-732.52472	-23.59684	567.81506	-675.44904	171.96576	157.40750	-716.62952	275.92166	751.21844	-603.14575	104.73975	1428.51709	-636.52277	220.15001	1068.40869	-624.72723	-2.25866	810.91650	-717.56506	76.34131	216.75955	-621.34344	216.53838	825.20154	
84	1.660	-646.74188	-6.50794	1052.42273	-694.85358	-65.41814	870.97827	-736.91016	248.88731	639.28876	-706.71362	81.49650	579.46069	-691.35498	143.11435	581.82043	-681.39819	19.17468	523.36255	-732.75568	244.22054	577.72455	-772.16968	253.21085	502.32657	-676.63123	203.21509	536.83649				-664.65582	-67.64375	163.24944	-710.90509	152.73650	216.41554	-624.18958	-78.84926	159.69852	-882.55438	296.08719	144.56430	-675.52502	55.33635	158.48494	-603.41223	18.44287	167.33960	-561.96472	-42.85690	164.05127	-595.15833	222.35948	173.65157	-666.65033	298.03918	160.63271	-629.46411	306.12698	162.46515	-560.82544	261.50070	165.10484	-528.14606	304.27264	146.43333	-544.89056	116.54630	1831.65186	-692.92285	284.76682	1542.02869	-662.35052	281.25629	877.65143	-517.70984	-72.48444	142.77275	-796.44910	172.51456	183.81117	-771.16309	223.68887	204.70631	-673.87091	-67.03523	1559.24255	-768.49280	-6.83199	206.13861	-795.28363	54.92249	174.65836	-847.87262	99.97038	1052.01978	-777.66766	-32.63194	487.47482	-876.03320	-78.59757	141.50241	-730.43628	-47.15125	718.31946	-724.19507	-25.82062	617.47668	-732.93488	-23.97900	568.11755	-675.44904	171.96576	157.40750	-717.87457	275.52377	750.51691	-601.14075	104.50410	1427.06714	-640.63263	219.70163	1068.16895	-627.26312	-2.46852	811.68781	-717.46759	76.17490	216.41664	-623.60748	216.49948	825.55353	
85	1.680	-651.02917	-6.79651	1052.83887	-697.95557	-66.55166	872.26367	-736.37000	248.59308	639.08801	-706.36182	81.60240	579.59766	-690.75061	143.45888	581.45941	-681.07440	19.09586	523.10760	-731.42010	244.59602	577.44275	-770.55414	253.16119	501.96948	-674.83215	203.53087	536.87262				-664.83673	-67.83006	162.95959	-710.71918	152.77075	216.40349	-624.24677	-78.89928	159.76772	-882.65778	296.13382	144.58998	-675.35785	55.11936	158.69174	-603.44000	18.18985	167.82835	-562.04816	-42.85733	164.20949	-595.09576	222.54704	173.79005	-666.52289	298.20956	160.71758	-629.52069	306.12592	162.57549	-560.90192	261.60245	164.98888	-528.18286	304.40295	146.38264	-535.41907	115.72252	1828.26563	-689.14478	283.91257	1541.86987	-665.63245	281.31940	878.31647	-517.86224	-72.14268	142.56963	-796.33008	172.70354	183.78938	-770.97223	223.58115	204.64865	-668.98926	-67.93282	1557.86060	-768.48730	-7.08943	206.19109	-795.33301	54.72097	174.61682	-851.83875	99.70128	1052.87524	-777.77576	-32.50744	487.34552	-876.03320	-78.59757	141.50241	-731.77606	-47.31050	718.53369	-724.57147	-26.34553	617.60474	-732.90015	-24.04596	568.09436	-675.44904	171.96576	157.40750	-719.72186	275.94711	750.85114	-599.40302	103.77795	1424.53796	-645.05713	219.18999	1067.91284	-630.00330	-2.30034	812.64349	-717.44379	75.80310	216.62453	-626.02917	216.43646	826.43793	
86	1.700	-654.92041	-6.41842	1052.42664	-701.93091	-67.10767	872.74048	-735.41919	248.83017	639.05786	-705.56195	81.16256	579.37152	-688.55792	143.48581	581.61139	-680.26624	18.47078	523.25684	-729.56372	244.58945	577.03992	-769.20789	253.63947	501.97241	-673.55511	203.77884	536.53925				-664.80798	-68.11655	162.67365	-710.60278	152.88148	216.30325	-624.19147	-78.86304	159.54190	-882.65778	296.13382	144.58998	-675.21222	54.86776	158.73021	-603.65155	18.09747	167.88045	-562.19318	-42.81317	164.23570	-594.91046	222.37363	173.92656	-666.58582	297.95294	160.77943	-629.38580	306.03256	162.55997	-560.82544	261.50070	165.10484	-528.09497	304.43414	146.44843	-525.57880	114.99604	1824.17542	-684.77283	283.04901	1540.93518	-668.31006	281.88736	878.89160	-517.87390	-72.26044	142.67963	-796.33344	172.63620	183.97073	-770.94269	223.70441	204.64777	-663.39465	-68.59956	1556.22339	-768.52252	-6.94654	206.19543	-795.35535	54.49899	174.46858	-856.18640	99.40080	1052.97437	-777.67517	-32.72666	487.62100	-876.03320	-78.59757	141.50241	-733.32477	-47.31635	718.42914	-723.27246	-27.95022	618.87512	-732.33954	-24.31851	568.09729	-675.58099	172.16254	157.33652	-720.62213	275.54358	750.33350	-596.99274	103.17150	1421.99756	-649.81818	219.25156	1067.55627	-633.07019	-2.85401	814.22565	-716.91663	75.48885	216.79480	-628.55005	216.11731	827.74585	
87	1.720	-659.45551	-6.34386	1051.59363	-705.65125	-67.25584	872.32922	-734.29230	249.01422	638.33783	-702.70819	81.25504	579.36835	-688.03076	143.80348	581.38965	-679.07489	18.11726	523.38232	-727.91400	244.61137	576.80536	-767.36145	253.86589	502.16794	-671.77686	203.97281	536.02057				-665.28210	-68.26360	162.27808	-709.59155	153.13620	216.16942	-624.52649	-79.01015	159.20224	-882.50012	295.98505	144.57483	-675.25885	55.00232	158.96964	-603.82428	17.59582	168.46544	-562.56384	-42.79468	164.01370	-594.99121	222.41437	173.47234	-666.32263	298.17963	160.87570	-629.37109	306.08499	162.64362	-560.97821	261.60834	165.02710	-528.18286	304.40295	146.38264	-515.68860	114.12859	1819.82678	-680.37921	281.96152	1539.39050	-672.06818	281.77469	879.01703	-517.86102	-72.04376	142.42375	-796.31006	172.69337	184.04898	-770.80493	223.93797	204.74673	-657.80743	-69.23460	1554.40808	-768.49731	-7.24202	206.35423	-795.38037	54.56187	174.48819	-861.17554	99.13711	1053.70020	-776.37866	-32.88997	487.46704	-876.13251	-78.56548	141.43300	-734.91638	-47.51985	718.24591	-722.87329	-28.23309	618.87531	-731.13556	-24.58178	567.55969	-675.52026	172.31468	157.41771	-722.03088	276.10034	750.55341	-594.54315	102.47712	1419.12488	-654.97595	218.89124	1066.85791	-635.97382	-3.02108	815.50452	-716.84784	75.38819	216.57697	-631.29633	215.87352	828.67560	
88	1.740	-664.91675	-7.40144	1050.61670	-709.98840	-67.71121	872.26648	-732.98682	249.37712	638.37842	-701.80096	81.26386	579.79297	-685.40253	144.32158	581.83868	-677.48767	17.32953	523.22015	-726.02118	245.11534	577.00049	-765.54694	254.11057	501.86783	-669.67383	203.70326	535.77234				-665.37579	-68.38548	161.97861	-709.32715	153.30286	216.17570	-624.47998	-79.21612	159.28288	-882.58575	296.13757	144.56622	-675.19482	54.70975	159.20296	-604.15845	17.62957	168.48595	-562.58398	-42.83638	164.06392	-595.05786	222.63579	173.80449	-666.51080	297.97565	160.72455	-629.52002	306.05765	162.77730	-560.97821	261.60834	165.02710	-528.11536	304.45233	146.53067	-505.43976	113.19924	1814.61414	-674.48035	280.60428	1537.61987	-676.75952	280.97784	878.27710	-517.59534	-72.23531	143.01123	-796.36987	172.46519	184.13376	-770.59644	224.11943	204.49202	-651.62708	-69.71295	1551.81592	-768.78088	-7.28364	206.03397	-795.42175	54.41808	174.62726	-866.60211	98.88027	1054.18738	-775.10785	-32.90682	487.15073	-876.10406	-78.52164	141.51430	-736.30280	-47.52203	717.91864	-721.56909	-28.77073	619.10260	-729.23895	-24.42953	567.24500	-675.55878	172.17856	157.37572				-592.27484	102.50984	1415.94336	-660.33307	219.39816	1065.26367	-638.82031	-3.73743	816.41156	-716.00958	76.04546	217.38571	-634.52820	215.62257	829.66626	
89	1.760				-714.22601	-67.98455	872.29413	-731.71033	249.37201	637.26050	-699.23779	80.43468	579.31281	-683.52271	144.47256	581.81921	-675.01190	16.66566	522.60504	-723.31995	245.54007	576.42059	-763.75153	254.44000	501.73947	-667.13641	204.15631	535.48645	-724.26483	276.46234	749.64648	-665.35199	-68.60567	162.01114	-709.05914	153.42807	215.61487	-624.27374	-79.65171	159.54149	-882.60834	296.06894	144.52896	-675.41675	54.53739	159.77040	-604.47394	17.22554	168.75314	-562.71729	-42.58918	164.05453	-595.21149	222.69389	173.94099	-666.58057	298.26477	160.99622	-629.46533	306.15903	162.62810	-560.82837	261.58896	165.05804	-528.07855	304.32205	146.58138	-494.61237	112.18694	1809.07581	-669.07281	279.55820	1535.27014	-680.13531	281.33463	878.68781	-517.62500	-72.30761	142.86942	-796.02191	172.74332	184.14034	-770.47241	224.23917	204.62366	-645.72174	-70.16091	1549.21216	-768.86121	-7.62468	206.19629	-795.42175	54.41808	174.62726	-872.13489	99.10221	1054.54236	-773.29944	-33.72786	487.56668	-876.03320	-78.59757	141.50241	-736.77930	-48.09589	717.85724	-720.85614	-28.26905	618.13538	-727.20276	-25.06500	567.50299	-675.55878	172.17856	157.37572				-589.56189	101.87987	1411.89539				-642.30426	-4.36854	817.27203	-716.57916	75.37248	216.69920	-637.66675	215.06517	830.71930	
90	1.780				-718.69635	-68.22453	871.48285	-729.40222	249.54443	636.67224	-696.89972	79.71470	579.11163	-680.81201	144.57503	582.19629	-672.40717	15.75383	522.34973	-720.75824	245.91727	576.30072	-761.21851	254.87569	501.69342	-664.88782	204.63792	534.95996	-725.14832	277.05518	748.68262	-665.50732	-68.57933	161.81302	-708.90253	153.43594	215.62396	-624.17236	-79.72199	159.04852	-882.66003	296.11053	144.51537	-675.41547	54.24972	160.15781	-603.78485	17.09270	169.06967	-562.66296	-42.58273	163.96718	-595.20734	222.66068	173.97418	-666.32208	298.10330	160.57582	-629.44000	306.09592	162.70047	-560.99493	261.63458	165.00566	-528.21149	304.33224	146.49052	-483.28845	111.37479	1802.10144	-662.39227	278.62817	1532.51685	-684.57697	280.96185	878.93628	-517.72327	-72.29841	142.67091	-795.97784	172.53917	184.33630	-770.37128	223.92467	204.78659	-638.91046	-70.69029	1545.58081	-768.23090	-8.18825	207.44099	-795.31836	54.08029	174.91469	-877.48364	99.17156	1055.02905	-771.04480	-34.16402	487.73886	-876.03320	-78.59757	141.50241				-718.49371	-28.91438	618.14471	-724.29742	-26.52728	567.53192	-675.56689	172.41228	157.41310				-586.72095	100.99556	1407.37866				-645.28485	-4.31563	818.34113	-715.47424	75.67949	217.35220	-641.40863	214.14017	831.63062	
